<?xml version="1.0" encoding="UTF-8" standalone="no"?>
<!-- Created with Inkscape (http://www.inkscape.org/) -->

<svg
   xmlns:dc="http://purl.org/dc/elements/1.1/"
   xmlns:cc="http://creativecommons.org/ns#"
   xmlns:rdf="http://www.w3.org/1999/02/22-rdf-syntax-ns#"
   xmlns:svg="http://www.w3.org/2000/svg"
   xmlns="http://www.w3.org/2000/svg"
   xmlns:sodipodi="http://sodipodi.sourceforge.net/DTD/sodipodi-0.dtd"
   xmlns:inkscape="http://www.inkscape.org/namespaces/inkscape"
   width="154.2876"
   height="141.5083"
   id="svg4149"
   version="1.1"
   inkscape:version="0.48.4 r9939"
   sodipodi:docname="gears.svg">
  <defs
     id="defs4151" />
  <sodipodi:namedview
     id="base"
     pagecolor="#ffffff"
     bordercolor="#666666"
     borderopacity="1.0"
     inkscape:pageopacity="0.0"
     inkscape:pageshadow="2"
     inkscape:zoom="1.4"
     inkscape:cx="-7.4955344"
     inkscape:cy="25.11724"
     inkscape:document-units="px"
     inkscape:current-layer="flowRoot4157"
     showgrid="false"
     fit-margin-top="0"
     fit-margin-left="0"
     fit-margin-right="0"
     fit-margin-bottom="0"
     inkscape:window-width="1920"
     inkscape:window-height="1018"
     inkscape:window-x="-8"
     inkscape:window-y="-8"
     inkscape:window-maximized="1" />
  <metadata
     id="metadata4154">
    <rdf:RDF>
      <cc:Work
         rdf:about="">
        <dc:format>image/svg+xml</dc:format>
        <dc:type
           rdf:resource="http://purl.org/dc/dcmitype/StillImage" />
        <dc:title></dc:title>
      </cc:Work>
    </rdf:RDF>
  </metadata>
  <g
     inkscape:label="Layer 1"
     inkscape:groupmode="layer"
     id="layer1"
     transform="translate(-265.70982,-415.97112)">
    <g
       transform="translate(151.42857,5.7142857)"
       style="font-size:56px;font-style:normal;font-variant:normal;font-weight:normal;font-stretch:normal;line-height:125%;letter-spacing:0px;word-spacing:0px;fill:#dfdfdf;fill-opacity:1;stroke:none;font-family:FontAwesome;-inkscape-font-specification:FontAwesome"
       id="flowRoot4157">
      <path
         d="m 114.28125,488.28174 0,-14.8667 c 0,-0.53607 0.1875,-1.05829 0.5625,-1.56665 0.375,-0.50824 0.8042,-0.78876 1.2876,-0.84155 l 12.4541,-1.9292 c 0.58885,-1.87494 1.44578,-3.91107 2.5708,-6.1084 -1.82228,-2.5722 -4.23341,-5.65276 -7.2334,-9.2417 -0.37501,-0.58879 -0.56251,-1.12346 -0.5625,-1.604 -1e-5,-0.64446 0.18749,-1.18059 0.5625,-1.6084 1.18065,-1.60832 3.37792,-3.99235 6.5918,-7.1521 3.21385,-3.15958 5.32908,-4.73941 6.3457,-4.7395 0.58885,9e-5 1.15135,0.18759 1.6875,0.5625 l 9.2417,7.229 c 1.82223,-0.96378 3.88473,-1.82071 6.1875,-2.5708 0.58883,-5.78604 1.20553,-9.91104 1.8501,-12.375 0.37496,-1.28603 1.17769,-1.9291 2.4082,-1.9292 l 14.9458,0 c 0.59174,1e-4 1.1286,0.20152 1.6106,0.60425 0.48187,0.40293 0.7492,0.87095 0.802,1.40405 l 1.8501,12.2959 c 1.81927,0.53622 3.82757,1.36678 6.0249,2.4917 l 9.4834,-7.1499 c 0.42765,-0.37491 0.96232,-0.56241 1.604,-0.5625 0.59172,9e-5 1.15422,0.21396 1.6875,0.6416 7.71671,7.12508 11.5751,11.41121 11.5752,12.8584 -1e-4,0.48054 -0.1876,0.98884 -0.5625,1.5249 -0.64463,0.85847 -1.77036,2.30501 -3.3772,4.3396 -1.60702,2.03474 -2.81185,3.6424 -3.6145,4.823 1.23038,2.5694 2.14005,4.7652 2.729,6.5874 l 12.2168,1.8501 c 0.53603,0.10552 0.9916,0.38604 1.3667,0.84155 0.3749,0.45562 0.5624,0.97784 0.5625,1.56665 l 0,14.8667 c -10e-5,0.53617 -0.1876,1.05839 -0.5625,1.56665 -0.3751,0.50834 -0.8043,0.79032 -1.2876,0.84595 l -12.4541,1.9248 c -0.58896,1.87504 -1.44589,3.91117 -2.5708,6.1084 1.81925,2.57229 4.22891,5.65286 7.229,9.2417 0.37491,0.53615 0.56241,1.07229 0.5625,1.6084 -9e-5,0.64162 -0.18759,1.14992 -0.5625,1.5249 -1.23056,1.60842 -3.43954,4.00636 -6.62695,7.19385 -3.18758,3.18751 -5.2911,4.78126 -6.31055,4.78125 -0.58894,10e-6 -1.15144,-0.18749 -1.6875,-0.5625 l -9.2373,-7.2334 c -1.98347,1.01661 -4.04597,1.84718 -6.1875,2.4917 -0.59186,5.78614 -1.20856,9.9375 -1.8501,12.4541 -0.37506,1.28613 -1.17926,1.9292 -2.4126,1.9292 l -14.9458,0 c -0.58891,0 -1.12431,-0.20069 -1.6062,-0.60205 -0.48198,-0.40137 -0.74931,-0.87012 -0.802,-1.40625 l -1.8501,-12.2959 c -1.8223,-0.53612 -3.8306,-1.36669 -6.0249,-2.4917 l -9.4834,7.1543 c -0.37502,0.37501 -0.91116,0.56251 -1.6084,0.5625 -0.58889,10e-6 -1.15139,-0.21533 -1.6875,-0.646 -7.71388,-7.12498 -11.57081,-11.40965 -11.5708,-12.854 -1e-5,-0.48338 0.18749,-0.99314 0.5625,-1.5293 0.53612,-0.74998 1.63475,-2.16941 3.2959,-4.2583 1.66112,-2.08884 2.91942,-3.72214 3.7749,-4.8999 -1.23048,-2.35837 -2.16798,-4.55563 -2.8125,-6.5918 l -12.2124,-1.9292 c -0.53613,-0.0527 -0.9917,-0.30684 -1.3667,-0.76245 -0.375,-0.45552 -0.5625,-0.97774 -0.5625,-1.56665 z m 36.8833,-21.85401 c -4.01663,4.01667 -6.02493,8.86383 -6.0249,14.54151 -3e-5,5.67778 2.009,10.52567 6.0271,14.5437 4.01802,4.0181 8.86592,6.02713 14.5437,6.0271 5.67768,3e-5 10.52557,-2.009 14.5437,-6.0271 4.018,-4.01803 6.02703,-8.86592 6.0271,-14.5437 -7e-5,-5.67768 -2.0091,-10.52557 -6.0271,-14.5437 -4.01813,-4.018 -8.86602,-6.02703 -14.5437,-6.0271 -5.67778,7e-5 -10.52641,2.00983 -14.5459,6.02929 z m 55.6875,61.30811 0,-11.25 c -9e-5,-0.85545 3.9916,-1.68455 11.9751,-2.4873 0.69423,-1.55565 1.49696,-2.94871 2.4082,-4.1792 -2.73057,-6.05564 -4.0958,-9.7529 -4.0957,-11.0918 -10e-5,-0.21383 0.10683,-0.40133 0.3208,-0.5625 0.21376,-0.10544 1.15126,-0.64084 2.8125,-1.6062 1.66102,-0.9653 3.24159,-1.87643 4.7417,-2.7334 1.49989,-0.85689 2.30262,-1.28536 2.4082,-1.2854 0.43055,4e-5 1.66322,1.24589 3.698,3.73755 2.03455,2.49173 3.42688,4.30008 4.177,5.42505 1.07215,-0.10837 1.87634,-0.16257 2.4126,-0.1626 0.53601,3e-5 1.33874,0.0542 2.4082,0.1626 2.73327,-3.8027 5.1986,-6.8027 7.396,-9 l 0.479,-0.1626 c 0.21667,4e-5 3.53893,1.87504 9.9668,5.625 0.21372,0.16117 0.32066,0.34867 0.3208,0.5625 -1.4e-4,1.3389 -1.36684,5.03616 -4.1001,11.0918 0.91099,1.23049 1.71519,2.62355 2.4126,4.1792 7.98325,0.80275 11.97494,1.63185 11.9751,2.4873 l 0,11.25 c -1.6e-4,0.8584 -3.99185,1.68897 -11.9751,2.4917 -0.64174,1.44727 -1.44594,2.84033 -2.4126,4.1792 2.73326,6.05272 4.09996,9.74999 4.1001,11.0918 -1.4e-4,0.21385 -0.10708,0.40135 -0.3208,0.5625 -6.53627,3.80271 -9.85853,5.70408 -9.9668,5.7041 -0.42787,-2e-5 -1.6598,-1.25905 -3.6958,-3.7771 -2.03626,-2.51808 -3.42932,-4.33961 -4.1792,-5.4646 -1.06946,0.10839 -1.87219,0.16258 -2.4082,0.1626 -0.53626,-2e-5 -1.34045,-0.0542 -2.4126,-0.1626 -0.75012,1.12499 -2.14245,2.94652 -4.177,5.4646 -2.03478,2.51805 -3.26745,3.77708 -3.698,3.7771 -0.10558,-2e-5 -3.42638,-1.90139 -9.9624,-5.7041 -0.21397,-0.16115 -0.3209,-0.34865 -0.3208,-0.5625 -10e-5,-1.34181 1.36513,-5.03908 4.0957,-11.0918 -0.96397,-1.33887 -1.76671,-2.73193 -2.4082,-4.1792 -7.9835,-0.80273 -11.97519,-1.6333 -11.9751,-2.4917 z m 0,-82.2832 0,-11.25 c -9e-5,-0.8583 3.9916,-1.68887 11.9751,-2.4917 0.69423,-1.55263 1.49696,-2.9457 2.4082,-4.1792 -2.73057,-6.05263 -4.0958,-9.74842 -4.0957,-11.0874 -10e-5,-0.21376 0.10683,-0.40125 0.3208,-0.5625 0.21376,-0.10829 1.15126,-0.64442 2.8125,-1.6084 1.66102,-0.96375 3.24159,-1.87415 4.7417,-2.7312 1.49989,-0.85682 2.30262,-1.28528 2.4082,-1.2854 0.43055,1.2e-4 1.66322,1.24523 3.698,3.73535 2.03455,2.49035 3.42688,4.29796 4.177,5.42285 1.07215,-0.10536 1.87634,-0.15809 2.4126,-0.1582 0.53601,1.1e-4 1.33874,0.0528 2.4082,0.1582 2.73327,-3.80262 5.1986,-6.80262 7.396,-9 l 0.479,-0.1582 c 0.21667,1.2e-4 3.53893,1.87512 9.9668,5.625 0.21372,0.16125 0.32066,0.34874 0.3208,0.5625 -1.4e-4,1.33898 -1.36684,5.03477 -4.1001,11.0874 0.91099,1.2335 1.71519,2.62657 2.4126,4.1792 7.98325,0.80283 11.97494,1.6334 11.9751,2.4917 l 0,11.25 c -1.6e-4,0.85555 -3.99185,1.68612 -11.9751,2.4917 -0.64174,1.44441 -1.44594,2.83748 -2.4126,4.1792 2.73326,6.0528 4.09996,9.7486 4.1001,11.0874 -1.4e-4,0.21393 -0.10708,0.40143 -0.3208,0.5625 -6.53627,3.8028 -9.85853,5.70416 -9.9668,5.7041 -0.42787,6e-5 -1.6598,-1.25897 -3.6958,-3.7771 -2.03626,-2.518 -3.42932,-4.33953 -4.1792,-5.4646 -1.06946,0.10847 -1.87219,0.16267 -2.4082,0.1626 -0.53626,7e-5 -1.34045,-0.0541 -2.4126,-0.1626 -0.75012,1.12507 -2.14245,2.9466 -4.177,5.4646 -2.03478,2.51813 -3.26745,3.77716 -3.698,3.7771 -0.10558,6e-5 -3.42638,-1.9013 -9.9624,-5.7041 -0.21397,-0.16107 -0.3209,-0.34857 -0.3208,-0.5625 -10e-5,-1.3388 1.36513,-5.0346 4.0957,-11.0874 -0.96397,-1.34172 -1.76671,-2.73479 -2.4082,-4.1792 -7.9835,-0.80558 -11.97519,-1.63615 -11.9751,-2.4917 z m 20.5708,76.6582 c -1.1e-4,2.8418 1.00477,5.26685 3.01465,7.27515 2.00965,2.0083 4.43396,3.01245 7.27295,3.01245 2.83874,0 5.26232,-1.00415 7.27075,-3.01245 2.00817,-2.0083 3.01232,-4.43335 3.01245,-7.27515 -1.3e-4,-2.78319 -1.01746,-5.19286 -3.052,-7.229 -2.0348,-2.03612 -4.44519,-3.05418 -7.2312,-3.0542 -2.78625,2e-5 -5.19738,1.01808 -7.2334,3.0542 -2.03625,2.03614 -3.05431,4.44581 -3.0542,7.229 z m 0,-82.2832 c -1.1e-4,2.83895 1.00477,5.26254 3.01465,7.27075 2.00965,2.00838 4.43396,3.01253 7.27295,3.01245 2.83874,8e-5 5.26232,-1.00407 7.27075,-3.01245 2.00817,-2.00821 3.01232,-4.4318 3.01245,-7.27075 -1.3e-4,-2.78604 -1.01746,-5.19717 -3.052,-7.2334 -2.0348,-2.03603 -4.44519,-3.0541 -7.2312,-3.0542 -2.78625,1e-4 -5.19738,1.01817 -7.2334,3.0542 -2.03625,2.03623 -3.05431,4.44736 -3.0542,7.2334 z"
         style="font-size:144px;fill:#dfdfdf"
         id="path4674" />
    </g>
  </g>
</svg>
