<?xml version="1.0" encoding="UTF-8" standalone="no"?>
<!-- Created with Inkscape (http://www.inkscape.org/) -->

<svg
   xmlns:dc="http://purl.org/dc/elements/1.1/"
   xmlns:cc="http://creativecommons.org/ns#"
   xmlns:rdf="http://www.w3.org/1999/02/22-rdf-syntax-ns#"
   xmlns:svg="http://www.w3.org/2000/svg"
   xmlns="http://www.w3.org/2000/svg"
   xmlns:sodipodi="http://sodipodi.sourceforge.net/DTD/sodipodi-0.dtd"
   xmlns:inkscape="http://www.inkscape.org/namespaces/inkscape"
   width="144"
   height="123.4292"
   id="svg4676"
   version="1.1"
   inkscape:version="0.48.4 r9939"
   sodipodi:docname="New document 8">
  <defs
     id="defs4678" />
  <sodipodi:namedview
     id="base"
     pagecolor="#ffffff"
     bordercolor="#666666"
     borderopacity="1.0"
     inkscape:pageopacity="0.0"
     inkscape:pageshadow="2"
     inkscape:zoom="2.351691"
     inkscape:cx="96.580602"
     inkscape:cy="65.031624"
     inkscape:document-units="px"
     inkscape:current-layer="layer1"
     showgrid="false"
     fit-margin-top="0"
     fit-margin-left="0"
     fit-margin-right="0"
     fit-margin-bottom="0"
     inkscape:window-width="1920"
     inkscape:window-height="1018"
     inkscape:window-x="-8"
     inkscape:window-y="-8"
     inkscape:window-maximized="1" />
  <metadata
     id="metadata4681">
    <rdf:RDF>
      <cc:Work
         rdf:about="">
        <dc:format>image/svg+xml</dc:format>
        <dc:type
           rdf:resource="http://purl.org/dc/dcmitype/StillImage" />
        <dc:title></dc:title>
      </cc:Work>
    </rdf:RDF>
  </metadata>
  <g
     inkscape:label="Layer 1"
     inkscape:groupmode="layer"
     id="layer1"
     transform="translate(-80,-342.13184)"
     style="display:inline">
    <g
       style="font-size:40px;font-style:normal;font-variant:normal;font-weight:normal;font-stretch:normal;line-height:125%;letter-spacing:0px;word-spacing:0px;fill:#dfdfdf;fill-opacity:1;stroke:none;font-family:FontAwesome;-inkscape-font-specification:FontAwesome"
       id="flowRoot4684">
      <path
         style="font-size:144px;fill:#dfdfdf;fill-opacity:1"
         d="M 38.40625 0 C 26.40622 0.00011 17.022932 3.32579 10.21875 9.96875 C 3.414547 16.61191 -2.5082207e-017 25.81063 0 37.59375 C 0 41.18562 0.616699 44.88483 1.875 48.6875 C 3.133298 52.49029 4.579097 55.72711 6.1875 58.40625 C 7.795891 61.0855 9.621572 63.70561 11.65625 66.25 C 13.690904 68.79447 15.187484 70.56742 16.125 71.53125 C 17.062483 72.49516 17.776349 73.16606 18.3125 73.59375 L 68.46875 121.96875 C 69.43548 122.93554 70.60833 123.43748 72 123.4375 C 73.39153 123.43748 74.56438 122.93554 75.53125 121.96875 L 125.59375 73.78125 C 137.86021 61.5147 143.99986 49.43561 144 37.59375 C 143.99986 25.81063 140.58531 16.61191 133.78125 9.96875 C 126.97692 3.32579 117.59363 0.00011 105.59375 0 C 102.27431 0.00011 98.89297 0.56749 95.4375 1.71875 C 91.98184 2.87022 88.75479 4.41954 85.78125 6.375 C 82.80753 8.33067 80.23674 10.19248 78.09375 11.90625 C 75.95061 13.62021 73.92766 15.41611 72 17.34375 C 70.0722 15.41611 68.04925 13.62021 65.90625 11.90625 C 63.76312 10.19248 61.19232 8.33067 58.21875 6.375 C 55.24506 4.41954 52.01802 2.87022 48.5625 1.71875 C 45.10689 0.56749 41.72554 0.00011 38.40625 0 z M 76.84375 26.9375 C 77.019862 26.918845 77.195378 26.940161 77.375 27 L 80.1875 27.78125 C 80.577803 27.901047 80.868086 28.124373 81.0625 28.46875 C 81.256807 28.813238 81.27593 29.172197 81.15625 29.5625 L 64.375 87.65625 C 64.253591 88.046603 64.031895 88.336889 63.6875 88.53125 C 63.34303 88.725597 62.985799 88.744732 62.625 88.625 L 59.84375 87.875 C 59.453361 87.755264 59.163895 87.531928 58.96875 87.1875 C 58.773536 86.843064 58.723982 86.452853 58.84375 86.0625 L 75.625 28 C 75.744676 27.609699 75.967198 27.319416 76.3125 27.125 C 76.485101 27.027847 76.667638 26.956155 76.84375 26.9375 z M 51.28125 35.375 C 51.67076 35.375048 52.012327 35.512408 52.3125 35.8125 L 54.5625 38.0625 C 54.86262 38.362693 55.031222 38.704258 55.03125 39.09375 C 55.031222 39.483331 54.862614 39.856146 54.5625 40.15625 L 36.90625 57.8125 L 54.5625 75.5 C 54.86262 75.800157 55.031222 76.141721 55.03125 76.53125 C 55.031222 76.920793 54.862614 77.262357 54.5625 77.5625 L 52.3125 79.8125 C 52.012327 80.112653 51.67076 80.281254 51.28125 80.28125 C 50.891689 80.281254 50.550125 80.112655 50.25 79.8125 L 29.28125 58.84375 C 28.981099 58.543627 28.843748 58.202063 28.84375 57.8125 C 28.843748 57.422992 28.981095 57.081425 29.28125 56.78125 L 50.25 35.8125 C 50.550125 35.512402 50.891689 35.375048 51.28125 35.375 z M 88.71875 35.375 C 89.109044 35.375048 89.449789 35.512408 89.75 35.8125 L 110.71875 56.78125 C 111.01881 57.081425 111.15617 57.422992 111.15625 57.8125 C 111.15617 58.202063 111.0188 58.543627 110.71875 58.84375 L 89.75 79.8125 C 89.449789 80.112653 89.109044 80.281254 88.71875 80.28125 C 88.328331 80.281254 87.985948 80.112655 87.6875 79.8125 L 85.4375 77.5625 C 85.137293 77.262357 84.999944 76.920793 85 76.53125 C 84.999944 76.141721 85.137285 75.800157 85.4375 75.5 L 103.125 57.8125 L 85.4375 40.15625 C 85.137293 39.856146 84.999944 39.483331 85 39.09375 C 84.999944 38.704258 85.137285 38.362693 85.4375 38.0625 L 87.6875 35.8125 C 87.985948 35.512402 88.328331 35.375048 88.71875 35.375 z "
         transform="translate(80,342.13184)"
         id="path4693" />
    </g>
  </g>
  <g
     inkscape:groupmode="layer"
     id="layer2"
     inkscape:label="Layer"
     style="display:inline">
    <flowRoot
       xml:space="preserve"
       id="flowRoot5204"
       style="font-size:40px;font-style:normal;font-weight:normal;line-height:125%;letter-spacing:0px;word-spacing:0px;fill:#000000;fill-opacity:1;stroke:none;font-family:Sans"><flowRegion
         id="flowRegion5206"><rect
           id="rect5208"
           width="85.242821"
           height="56.377529"
           x="26.910873"
           y="23.90407" /></flowRegion><flowPara
         id="flowPara5210"></flowPara></flowRoot>    <g
       style="font-size:40px;font-style:normal;font-variant:normal;font-weight:normal;font-stretch:normal;line-height:125%;letter-spacing:0px;word-spacing:0px;fill:#000000;fill-opacity:1;stroke:none;font-family:FontAwesome;-inkscape-font-specification:FontAwesome"
       id="text5212"
       transform="matrix(2.0154218,0,0,2.0154218,-57.718051,-43.828115)" />
  </g>
</svg>
