<?xml version="1.0" encoding="UTF-8" standalone="no"?>
<!-- Created with Inkscape (http://www.inkscape.org/) -->

<svg
   xmlns:dc="http://purl.org/dc/elements/1.1/"
   xmlns:cc="http://creativecommons.org/ns#"
   xmlns:rdf="http://www.w3.org/1999/02/22-rdf-syntax-ns#"
   xmlns:svg="http://www.w3.org/2000/svg"
   xmlns="http://www.w3.org/2000/svg"
   xmlns:sodipodi="http://sodipodi.sourceforge.net/DTD/sodipodi-0.dtd"
   xmlns:inkscape="http://www.inkscape.org/namespaces/inkscape"
   width="150.96996"
   height="147.24187"
   id="svg3364"
   version="1.1"
   inkscape:version="0.48.4 r9939"
   sodipodi:docname="New document 4">
  <defs
     id="defs3366" />
  <sodipodi:namedview
     id="base"
     pagecolor="#ffffff"
     bordercolor="#666666"
     borderopacity="1.0"
     inkscape:pageopacity="0.0"
     inkscape:pageshadow="2"
     inkscape:zoom="4.4131929"
     inkscape:cx="61.912805"
     inkscape:cy="67.582201"
     inkscape:document-units="px"
     inkscape:current-layer="layer1"
     showgrid="false"
     fit-margin-top="0"
     fit-margin-left="0"
     fit-margin-right="0"
     fit-margin-bottom="0"
     inkscape:window-width="1920"
     inkscape:window-height="1018"
     inkscape:window-x="-8"
     inkscape:window-y="-8"
     inkscape:window-maximized="1" />
  <metadata
     id="metadata3369">
    <rdf:RDF>
      <cc:Work
         rdf:about="">
        <dc:format>image/svg+xml</dc:format>
        <dc:type
           rdf:resource="http://purl.org/dc/dcmitype/StillImage" />
        <dc:title></dc:title>
      </cc:Work>
    </rdf:RDF>
  </metadata>
  <g
     inkscape:label="Layer 1"
     inkscape:groupmode="layer"
     id="layer1"
     transform="translate(-273.08643,-355.8841)">
    <path
       inkscape:connector-curvature="0"
       d="m 348.57143,355.8841 c -41.68375,0 -75.485,33.79375 -75.485,75.485 0,33.35 21.62875,61.645 51.62125,71.62625 3.7725,0.69875 5.1575,-1.6375 5.1575,-3.63125 0,-1.79875 -0.07,-7.74625 -0.1025,-14.05375 -21,4.56625 -25.43125,-8.90625 -25.43125,-8.90625 -3.43375,-8.72375 -8.38125,-11.045 -8.38125,-11.045 -6.84875,-4.685 0.51625,-4.58875 0.51625,-4.58875 7.58,0.5325 11.57125,7.78 11.57125,7.78 6.7325,11.53875 17.65875,8.2025 21.96625,6.27375 0.67875,-4.8775 2.63375,-8.20875 4.7925,-10.09375 -16.76625,-1.9075 -34.39125,-8.38125 -34.39125,-37.305 0,-8.24 2.94875,-14.975 7.7775,-20.26125 -0.78375,-1.90125 -3.3675,-9.57875 0.7325,-19.97625 0,0 6.33875,-2.0275 20.7625,7.73875 6.02125,-1.6725 12.47875,-2.51125 18.89375,-2.54125 6.415,0.03 12.8775,0.86875 18.91,2.54125 14.4075,-9.76625 20.7375,-7.73875 20.7375,-7.73875 4.10875,10.3975 1.525,18.075 0.74125,19.97625 4.84,5.28625 7.7675,12.02125 7.7675,20.26125 0,28.99375 -17.65875,35.37625 -34.4675,37.245 2.7075,2.3425 5.12,6.93625 5.12,13.97875 0,10.1 -0.0863,18.22875 -0.0863,20.715 0,2.01 1.3575,4.3625 5.18375,3.6225 29.9775,-9.9925 51.57875,-38.2775 51.57875,-71.6175 0,-41.69125 -33.79625,-75.485 -75.485,-75.485"
       style="fill:#dfdfdf;fill-opacity:1;fill-rule:evenodd;stroke:none"
       id="path3011" />
  </g>
</svg>
