<?xml version="1.0" encoding="UTF-8" standalone="no"?>
<!-- Created with Inkscape (http://www.inkscape.org/) -->

<svg
   xmlns:dc="http://purl.org/dc/elements/1.1/"
   xmlns:cc="http://creativecommons.org/ns#"
   xmlns:rdf="http://www.w3.org/1999/02/22-rdf-syntax-ns#"
   xmlns:svg="http://www.w3.org/2000/svg"
   xmlns="http://www.w3.org/2000/svg"
   xmlns:sodipodi="http://sodipodi.sourceforge.net/DTD/sodipodi-0.dtd"
   xmlns:inkscape="http://www.inkscape.org/namespaces/inkscape"
   width="207.36723"
   height="91.175652"
   id="svg5230"
   version="1.1"
   inkscape:version="0.48.4 r9939"
   sodipodi:docname="New document 11">
  <defs
     id="defs5232" />
  <sodipodi:namedview
     id="base"
     pagecolor="#ffffff"
     bordercolor="#666666"
     borderopacity="1.0"
     inkscape:pageopacity="0.0"
     inkscape:pageshadow="2"
     inkscape:zoom="1.979899"
     inkscape:cx="30.798993"
     inkscape:cy="33.999893"
     inkscape:document-units="px"
     inkscape:current-layer="layer1"
     showgrid="false"
     fit-margin-top="0"
     fit-margin-left="0"
     fit-margin-right="0"
     fit-margin-bottom="0"
     inkscape:window-width="1920"
     inkscape:window-height="1018"
     inkscape:window-x="-8"
     inkscape:window-y="-8"
     inkscape:window-maximized="1" />
  <metadata
     id="metadata5235">
    <rdf:RDF>
      <cc:Work
         rdf:about="">
        <dc:format>image/svg+xml</dc:format>
        <dc:type
           rdf:resource="http://purl.org/dc/dcmitype/StillImage" />
        <dc:title></dc:title>
      </cc:Work>
    </rdf:RDF>
  </metadata>
  <g
     inkscape:label="Layer 1"
     inkscape:groupmode="layer"
     id="layer1"
     transform="translate(-74.3013,-169.53517)">
    <g
       style="font-size:72px;font-style:normal;font-variant:normal;font-weight:300;font-stretch:normal;text-align:start;line-height:125%;letter-spacing:0px;word-spacing:0px;writing-mode:lr-tb;text-anchor:start;fill:#040404;fill-opacity:1;stroke:none;font-family:Open Sans Light;-inkscape-font-specification:'Open Sans Light, Light'"
       id="text5238">
      <path
         d="m 93.125557,233.90627 c -2.156247,-2e-5 -3.925776,-0.31642 -5.308594,-0.94922 l 0,-3.09375 c 1.82813,0.46874 3.574222,0.70311 5.238281,0.70312 5.671871,-1e-5 8.507806,-3.09376 8.507816,-9.28125 l 0,-51.75 3.58593,0 0,51.39844 c -1e-5,8.64843 -4.00781,12.97264 -12.023433,12.97266 z"
         style="fill:#040404;font-family:Open Sans Light;-inkscape-font-specification:'Open Sans Light, Light'"
         id="path5756"
         inkscape:connector-curvature="0" />
      <path
         d="m 141.74665,220.93361 -0.87891,-6.04688 -0.28125,0 c -1.9219,2.46095 -3.8965,4.20118 -5.92382,5.22071 -2.02737,1.01953 -4.42385,1.52929 -7.18946,1.52929 -3.75001,0 -6.66797,-0.96093 -8.7539,-2.88281 -2.08595,-1.92187 -3.12891,-4.58202 -3.12891,-7.98047 0,-3.72655 1.55273,-6.62107 4.6582,-8.68359 3.10546,-2.06248 7.5996,-3.15232 13.48243,-3.26953 l 7.27734,-0.21094 0,-2.53125 c -3e-5,-3.63278 -0.73831,-6.37497 -2.21484,-8.22656 -1.47659,-1.85153 -3.8555,-2.77731 -7.13672,-2.77735 -3.53908,4e-5 -7.20705,0.98441 -11.00391,2.95313 l -1.30078,-3.02344 c 4.1953,-1.96871 8.34373,-2.95308 12.44531,-2.95312 4.19529,4e-5 7.33005,1.08988 9.4043,3.26953 2.07419,2.17972 3.11129,5.57815 3.11133,10.19531 l 0,25.41797 z m -14.0625,-2.46094 c 4.07811,0 7.2949,-1.16601 9.65039,-3.49805 2.35544,-2.33202 3.53318,-5.57225 3.5332,-9.7207 l 0,-3.76172 -6.67968,0.28125 c -5.36721,0.25783 -9.19338,1.09572 -11.47852,2.51367 -2.28516,1.41799 -3.42774,3.62697 -3.42773,6.62696 -10e-6,2.39063 0.73241,4.24805 2.19726,5.57226 1.46484,1.32423 3.53319,1.98633 6.20508,1.98633 z"
         style="fill:#040404;font-family:Open Sans Light;-inkscape-font-specification:'Open Sans Light, Light'"
         id="path5758"
         inkscape:connector-curvature="0" />
      <path
         d="m 183.30134,220.93361 0,-24.78516 c -3e-5,-3.84372 -0.80863,-6.63864 -2.42578,-8.38476 -1.61722,-1.74606 -4.12503,-2.61911 -7.52344,-2.61914 -4.57033,3e-5 -7.91603,1.15433 -10.03711,3.46289 -2.1211,2.30862 -3.18165,6.05276 -3.18164,11.23242 l 0,21.09375 -3.48047,0 0,-38.21484 2.95313,0 0.66796,5.23828 0.21094,0 c 2.48436,-3.98434 6.90233,-5.97653 13.25391,-5.97657 8.67184,4e-5 13.00777,4.65238 13.00781,13.95704 l 0,24.99609 z"
         style="fill:#040404;font-family:Open Sans Light;-inkscape-font-specification:'Open Sans Light, Light'"
         id="path5760"
         inkscape:connector-curvature="0" />
      <path
         d="m 209.21149,218.54298 c 2.20311,1e-5 4.12498,-0.18749 5.76563,-0.5625 l 0,2.8125 c -1.68752,0.5625 -3.63283,0.84375 -5.83594,0.84375 -3.37501,0 -5.86524,-0.90234 -7.4707,-2.70703 -1.60548,-1.80468 -2.40821,-4.64062 -2.4082,-8.50781 l 0,-24.67969 -5.66016,0 0,-2.03906 5.66016,-1.58203 1.75781,-8.64844 1.79297,0 0,9.2461 11.21484,0 0,3.02343 -11.21484,0 0,24.1875 c -1e-5,2.9297 0.51561,5.09766 1.54687,6.50391 1.03124,1.40625 2.64843,2.10938 4.85156,2.10937 z"
         style="fill:#040404;font-family:Open Sans Light;-inkscape-font-specification:'Open Sans Light, Light'"
         id="path5762"
         inkscape:connector-curvature="0" />
      <path
         d="m 246.51228,220.93361 -0.87891,-6.04688 -0.28125,0 c -1.9219,2.46095 -3.89651,4.20118 -5.92383,5.22071 -2.02736,1.01953 -4.42384,1.52929 -7.18945,1.52929 -3.75001,0 -6.66798,-0.96093 -8.75391,-2.88281 -2.08594,-1.92187 -3.12891,-4.58202 -3.1289,-7.98047 -1e-5,-3.72655 1.55273,-6.62107 4.6582,-8.68359 3.10546,-2.06248 7.59959,-3.15232 13.48242,-3.26953 l 7.27734,-0.21094 0,-2.53125 c -2e-5,-3.63278 -0.7383,-6.37497 -2.21484,-8.22656 -1.47659,-1.85153 -3.85549,-2.77731 -7.13672,-2.77735 -3.53908,4e-5 -7.20704,0.98441 -11.0039,2.95313 l -1.30079,-3.02344 c 4.19531,-1.96871 8.34374,-2.95308 12.44532,-2.95312 4.19529,4e-5 7.33005,1.08988 9.40429,3.26953 2.07419,2.17972 3.1113,5.57815 3.11133,10.19531 l 0,25.41797 z m -14.0625,-2.46094 c 4.0781,0 7.29489,-1.16601 9.65039,-3.49805 2.35544,-2.33202 3.53317,-5.57225 3.5332,-9.7207 l 0,-3.76172 -6.67969,0.28125 c -5.3672,0.25783 -9.19337,1.09572 -11.47851,2.51367 -2.28517,1.41799 -3.42775,3.62697 -3.42774,6.62696 -1e-5,2.39063 0.73242,4.24805 2.19727,5.57226 1.46483,1.32423 3.53319,1.98633 6.20508,1.98633 z"
         style="fill:#040404;font-family:Open Sans Light;-inkscape-font-specification:'Open Sans Light, Light'"
         id="path5764"
         inkscape:connector-curvature="0" />
      <path
         d="m 276.4654,181.98048 c 1.61717,4e-5 3.35154,0.16411 5.20313,0.49219 l -0.66797,3.33985 c -1.59378,-0.39841 -3.24612,-0.59763 -4.95703,-0.59766 -3.25783,3e-5 -5.92971,1.38285 -8.01563,4.14844 -2.08595,2.76565 -3.12892,6.25783 -3.12891,10.47656 l 0,21.09375 -3.48046,0 0,-38.21484 2.95312,0 0.35156,6.89062 0.2461,0 c 1.5703,-2.81247 3.24608,-4.78707 5.02734,-5.92383 1.78123,-1.13668 3.93748,-1.70504 6.46875,-1.70508 z"
         style="fill:#040404;font-family:Open Sans Light;-inkscape-font-specification:'Open Sans Light, Light'"
         id="path5766"
         inkscape:connector-curvature="0" />
    </g>
    <g
       style="font-size:40px;font-style:normal;font-weight:normal;line-height:125%;letter-spacing:0px;word-spacing:0px;fill:#2d2d2d;fill-opacity:1;stroke:none;font-family:Sans"
       id="text5243">
      <path
         d="m 79.355988,256.86707 -3.875,-10.125 -0.0625,0 c 0.07291,0.80209 0.109372,1.75521 0.109375,2.85937 l 0,7.26563 -1.226563,0 0,-11.42188 2,0 3.617188,9.42188 0.0625,0 3.648437,-9.42188 1.984375,0 0,11.42188 -1.328125,0 0,-7.35938 c -1.2e-5,-0.84374 0.03645,-1.76041 0.109375,-2.75 l -0.0625,0 -3.90625,10.10938 z"
         style="font-size:16px;font-variant:normal;font-stretch:normal;fill:#2d2d2d;font-family:Open Sans;-inkscape-font-specification:Open Sans"
         id="path5769"
         inkscape:connector-curvature="0" />
      <path
         d="m 93.809113,256.86707 -0.257813,-1.21875 -0.0625,0 c -0.427089,0.53645 -0.85287,0.89974 -1.277344,1.08984 -0.424483,0.1901 -0.954431,0.28516 -1.589843,0.28516 -0.848961,0 -1.514325,-0.21875 -1.996094,-0.65625 -0.481772,-0.4375 -0.722657,-1.0599 -0.722656,-1.86719 -10e-7,-1.72916 1.38281,-2.63541 4.148437,-2.71875 l 1.453125,-0.0469 0,-0.53125 c -6e-6,-0.67187 -0.144537,-1.16796 -0.433594,-1.48828 -0.289068,-0.3203 -0.751307,-0.48046 -1.386718,-0.48047 -0.713546,1e-5 -1.520837,0.21876 -2.421875,0.65625 L 88.8638,248.89832 c 0.421873,-0.22916 0.884112,-0.40885 1.386719,-0.53907 0.5026,-0.1302 1.006506,-0.1953 1.511719,-0.19531 1.020827,1e-5 1.777337,0.22657 2.269531,0.67969 0.49218,0.45313 0.738273,1.17969 0.738281,2.17969 l 0,5.84375 z M 90.879425,255.953 c 0.807287,0 1.441401,-0.22135 1.902344,-0.66406 0.460931,-0.44271 0.6914,-1.0625 0.691406,-1.85937 l 0,-0.77344 -1.296875,0.0547 c -1.031254,0.0365 -1.774743,0.19661 -2.230469,0.48046 -0.455731,0.28386 -0.683596,0.72527 -0.683593,1.32422 -3e-6,0.46875 0.141924,0.82553 0.425781,1.07032 0.283851,0.24479 0.680986,0.36718 1.191406,0.36718 z"
         style="font-size:16px;font-variant:normal;font-stretch:normal;fill:#2d2d2d;font-family:Open Sans;-inkscape-font-specification:Open Sans"
         id="path5771"
         inkscape:connector-curvature="0" />
      <path
         d="m 98.730988,252.48425 c 0.223955,-0.3177 0.5651,-0.73437 1.023437,-1.25 l 2.765625,-2.92968 1.53906,0 -3.46875,3.64843 3.71094,4.91407 -1.57031,0 -3.02344,-4.04688 -0.976562,0.84375 0,3.20313 -1.28125,0 0,-12.15625 1.28125,0 0,6.44531 c -3e-6,0.28646 -0.02084,0.72917 -0.0625,1.32812 z"
         style="font-size:16px;font-variant:normal;font-stretch:normal;fill:#2d2d2d;font-family:Open Sans;-inkscape-font-specification:Open Sans"
         id="path5773"
         inkscape:connector-curvature="0" />
      <path
         d="m 107.15286,256.86707 -1.29687,0 0,-8.5625 1.29687,0 z m -1.40625,-10.88282 c 0,-0.29686 0.0729,-0.51431 0.21875,-0.65234 0.14583,-0.13801 0.32813,-0.20702 0.54688,-0.20703 0.20833,1e-5 0.38802,0.0703 0.53906,0.21094 0.15104,0.14063 0.22656,0.35678 0.22656,0.64843 0,0.29168 -0.0755,0.50913 -0.22656,0.65235 -0.15104,0.14324 -0.33073,0.21485 -0.53906,0.21484 -0.21875,1e-5 -0.40105,-0.0716 -0.54688,-0.21484 -0.14583,-0.14322 -0.21875,-0.36067 -0.21875,-0.65235 z"
         style="font-size:16px;font-variant:normal;font-stretch:normal;fill:#2d2d2d;font-family:Open Sans;-inkscape-font-specification:Open Sans"
         id="path5775"
         inkscape:connector-curvature="0" />
      <path
         d="m 115.77786,256.86707 0,-5.53907 c 0,-0.69791 -0.15886,-1.21874 -0.47656,-1.5625 -0.31771,-0.34374 -0.81511,-0.51561 -1.49219,-0.51562 -0.89584,1e-5 -1.55208,0.24219 -1.96875,0.72656 -0.41667,0.48438 -0.625,1.28386 -0.625,2.39844 l 0,4.49219 -1.29687,0 0,-8.5625 1.05469,0 0.21093,1.17187 0.0625,0 c 0.26562,-0.42187 0.63802,-0.74869 1.11719,-0.98047 0.47916,-0.23176 1.01302,-0.34765 1.60156,-0.34765 1.03125,0 1.80729,0.2487 2.32813,0.74609 0.52082,0.4974 0.78124,1.29297 0.78125,2.38672 l 0,5.58594 z"
         style="font-size:16px;font-variant:normal;font-stretch:normal;fill:#2d2d2d;font-family:Open Sans;-inkscape-font-specification:Open Sans"
         id="path5777"
         inkscape:connector-curvature="0" />
      <path
         d="m 126.7388,248.30457 0,0.82031 -1.58594,0.1875 c 0.14583,0.1823 0.27604,0.42058 0.39063,0.71484 0.11457,0.29428 0.17187,0.62631 0.17187,0.9961 0,0.83854 -0.28646,1.50781 -0.85937,2.00781 -0.57293,0.5 -1.35938,0.75 -2.35938,0.75 -0.25521,0 -0.49479,-0.0208 -0.71875,-0.0625 -0.55208,0.29167 -0.82813,0.65885 -0.82812,1.10156 -1e-5,0.23438 0.0964,0.40755 0.28906,0.51953 0.19271,0.11198 0.52343,0.16797 0.99219,0.16797 l 1.51562,0 c 0.92708,0 1.63932,0.19531 2.13672,0.58594 0.49739,0.39062 0.74609,0.95833 0.7461,1.70312 -1e-5,0.94792 -0.38022,1.67057 -1.14063,2.16797 -0.76042,0.49739 -1.8698,0.74609 -3.32812,0.7461 -1.1198,-1e-5 -1.98308,-0.20834 -2.58985,-0.625 -0.60677,-0.41667 -0.91016,-1.00522 -0.91015,-1.76563 -1e-5,-0.52083 0.16666,-0.97135 0.5,-1.35156 0.33333,-0.38021 0.80208,-0.63802 1.40625,-0.77344 -0.21876,-0.099 -0.40235,-0.2526 -0.55079,-0.46094 -0.14844,-0.20833 -0.22265,-0.45052 -0.22265,-0.72656 0,-0.3125 0.0833,-0.58593 0.25,-0.82031 0.16666,-0.23437 0.42968,-0.46094 0.78906,-0.67969 -0.44271,-0.18229 -0.80339,-0.49218 -1.08203,-0.92969 -0.27865,-0.43749 -0.41797,-0.93749 -0.41797,-1.5 0,-0.93749 0.28125,-1.66015 0.84375,-2.16797 0.5625,-0.5078 1.35937,-0.76171 2.39063,-0.76171 0.44791,0 0.85155,0.0521 1.21093,0.15625 z m -6.82812,10 c -1e-5,0.46354 0.19531,0.8151 0.58593,1.05468 0.39063,0.23958 0.95052,0.35938 1.67969,0.35938 1.08854,0 1.89453,-0.16277 2.41797,-0.48828 0.52343,-0.32553 0.78515,-0.76693 0.78516,-1.32422 -1e-5,-0.46354 -0.14324,-0.78516 -0.42969,-0.96485 -0.28647,-0.17968 -0.82553,-0.26953 -1.61719,-0.26953 l -1.55469,0 c -0.58854,0 -1.04687,0.14063 -1.375,0.42188 -0.32812,0.28125 -0.49219,0.68489 -0.49218,1.21094 z m 0.70312,-7.25782 c 0,0.59897 0.16927,1.05209 0.50781,1.35938 0.33854,0.30729 0.80989,0.46094 1.41407,0.46094 1.26561,0 1.89843,-0.61458 1.89843,-1.84375 0,-1.28646 -0.64063,-1.92968 -1.92187,-1.92969 -0.60938,1e-5 -1.07813,0.16407 -1.40625,0.49219 -0.32813,0.32813 -0.49219,0.81511 -0.49219,1.46093 z"
         style="font-size:16px;font-variant:normal;font-stretch:normal;fill:#2d2d2d;font-family:Open Sans;-inkscape-font-specification:Open Sans"
         id="path5779"
         inkscape:connector-curvature="0" />
      <path
         d="m 135.43411,255.953 c 0.22916,0 0.45052,-0.0169 0.66407,-0.0508 0.21353,-0.0339 0.3828,-0.069 0.50781,-0.10547 l 0,0.99219 c -0.14063,0.0677 -0.34766,0.1237 -0.6211,0.16797 -0.27344,0.0443 -0.51953,0.0664 -0.73828,0.0664 -1.65625,0 -2.48437,-0.8724 -2.48437,-2.61719 l 0,-5.09375 -1.22656,0 0,-0.625 1.22656,-0.53906 0.54687,-1.82813 0.75,0 0,1.98438 2.48438,0 0,1.00781 -2.48438,0 0,5.03906 c 0,0.51563 0.1224,0.91146 0.36719,1.1875 0.24479,0.27604 0.58073,0.41406 1.00781,0.41406 z"
         style="font-size:16px;font-variant:normal;font-stretch:normal;fill:#2d2d2d;font-family:Open Sans;-inkscape-font-specification:Open Sans"
         id="path5781"
         inkscape:connector-curvature="0" />
      <path
         d="m 144.18411,256.86707 0,-5.53907 c 0,-0.69791 -0.15886,-1.21874 -0.47656,-1.5625 -0.31771,-0.34374 -0.81511,-0.51561 -1.49219,-0.51562 -0.90104,1e-5 -1.55859,0.2448 -1.97265,0.73437 -0.41407,0.48959 -0.6211,1.29168 -0.6211,2.40625 l 0,4.47657 -1.29687,0 0,-12.15625 1.29687,0 0,3.67968 c 0,0.44272 -0.0208,0.80991 -0.0625,1.10157 l 0.0781,0 c 0.2552,-0.41146 0.61848,-0.73567 1.08984,-0.97266 0.47135,-0.23697 1.00911,-0.35546 1.61328,-0.35547 1.04687,1e-5 1.83203,0.24871 2.35547,0.74609 0.52343,0.49741 0.78515,1.28777 0.78516,2.3711 l 0,5.58594 z"
         style="font-size:16px;font-variant:normal;font-stretch:normal;fill:#2d2d2d;font-family:Open Sans;-inkscape-font-specification:Open Sans"
         id="path5783"
         inkscape:connector-curvature="0" />
      <path
         d="m 151.75443,257.02332 c -1.26563,0 -2.26433,-0.38542 -2.9961,-1.15625 -0.73177,-0.77084 -1.09766,-1.84115 -1.09765,-3.21094 -1e-5,-1.3802 0.33984,-2.47656 1.01953,-3.28906 0.67968,-0.8125 1.59244,-1.21875 2.73828,-1.21875 1.07291,0 1.92187,0.35287 2.54687,1.05859 0.62499,0.70574 0.93749,1.63672 0.9375,2.79297 l 0,0.82031 -5.89843,0 c 0.026,1.00521 0.27994,1.76823 0.76171,2.28906 0.48177,0.52084 1.16016,0.78125 2.03516,0.78125 0.92187,0 1.83333,-0.1927 2.73438,-0.57812 l 0,1.15625 c -0.45835,0.19791 -0.89194,0.33984 -1.30079,0.42578 -0.40886,0.0859 -0.90235,0.12891 -1.48046,0.12891 z m -0.35157,-7.78907 c -0.6875,1e-5 -1.23568,0.22397 -1.64453,0.67188 -0.40886,0.44792 -0.64974,1.06771 -0.72265,1.85937 l 4.47656,0 c -1e-5,-0.8177 -0.1823,-1.444 -0.54688,-1.8789 -0.36459,-0.43489 -0.88542,-0.65234 -1.5625,-0.65235 z"
         style="font-size:16px;font-variant:normal;font-stretch:normal;fill:#2d2d2d;font-family:Open Sans;-inkscape-font-specification:Open Sans"
         id="path5785"
         inkscape:connector-curvature="0" />
      <path
         d="m 168.25443,256.86707 -1.57032,-5.02344 c -0.099,-0.30729 -0.28386,-1.0052 -0.55468,-2.09375 l -0.0625,0 c -0.20834,0.91146 -0.39064,1.61459 -0.54688,2.10937 l -1.61719,5.00782 -1.5,0 -2.33593,-8.5625 1.35937,0 c 0.55208,2.15104 0.97265,3.78906 1.26172,4.91406 0.28906,1.125 0.45442,1.88281 0.49609,2.27344 l 0.0625,0 c 0.0573,-0.29688 0.14974,-0.68099 0.27735,-1.15235 0.1276,-0.47135 0.23827,-0.84505 0.33203,-1.12109 l 1.57031,-4.91406 1.40625,0 1.53125,4.91406 c 0.29166,0.89583 0.48957,1.64844 0.59375,2.25781 l 0.0625,0 c 0.0208,-0.1875 0.0768,-0.47656 0.16797,-0.86719 0.0911,-0.39062 0.6341,-2.49218 1.62891,-6.30468 l 1.34375,0 -2.36719,8.5625 z"
         style="font-size:16px;font-variant:normal;font-stretch:normal;fill:#2d2d2d;font-family:Open Sans;-inkscape-font-specification:Open Sans"
         id="path5787"
         inkscape:connector-curvature="0" />
      <path
         d="m 177.31693,257.02332 c -1.26563,0 -2.26433,-0.38542 -2.9961,-1.15625 -0.73177,-0.77084 -1.09766,-1.84115 -1.09765,-3.21094 -1e-5,-1.3802 0.33984,-2.47656 1.01953,-3.28906 0.67968,-0.8125 1.59244,-1.21875 2.73828,-1.21875 1.07291,0 1.92187,0.35287 2.54687,1.05859 0.62499,0.70574 0.93749,1.63672 0.9375,2.79297 l 0,0.82031 -5.89843,0 c 0.026,1.00521 0.27994,1.76823 0.76171,2.28906 0.48177,0.52084 1.16016,0.78125 2.03516,0.78125 0.92187,0 1.83333,-0.1927 2.73438,-0.57812 l 0,1.15625 c -0.45835,0.19791 -0.89194,0.33984 -1.30079,0.42578 -0.40886,0.0859 -0.90235,0.12891 -1.48046,0.12891 z m -0.35157,-7.78907 c -0.6875,1e-5 -1.23568,0.22397 -1.64453,0.67188 -0.40886,0.44792 -0.64974,1.06771 -0.72265,1.85937 l 4.47656,0 c -1e-5,-0.8177 -0.1823,-1.444 -0.54688,-1.8789 -0.36459,-0.43489 -0.88542,-0.65234 -1.5625,-0.65235 z"
         style="font-size:16px;font-variant:normal;font-stretch:normal;fill:#2d2d2d;font-family:Open Sans;-inkscape-font-specification:Open Sans"
         id="path5789"
         inkscape:connector-curvature="0" />
      <path
         d="m 186.65286,248.16394 c 1.125,1e-5 1.99869,0.38412 2.6211,1.15234 0.62238,0.76824 0.93358,1.85548 0.93359,3.26172 -1e-5,1.40626 -0.31381,2.4987 -0.94141,3.27735 -0.62761,0.77864 -1.4987,1.16797 -2.61328,1.16797 -0.55729,0 -1.06641,-0.10287 -1.52734,-0.3086 -0.46094,-0.20573 -0.84766,-0.52213 -1.16016,-0.94922 l -0.0937,0 -0.27343,1.10157 -0.92969,0 0,-12.15625 1.29687,0 0,2.95312 c 0,0.66147 -0.0208,1.25522 -0.0625,1.78125 l 0.0625,0 c 0.60417,-0.85416 1.5,-1.28124 2.6875,-1.28125 z m -0.1875,1.08594 c -0.88542,1e-5 -1.52344,0.25391 -1.91406,0.76172 -0.39063,0.50782 -0.58594,1.36328 -0.58594,2.5664 0,1.20313 0.20052,2.06381 0.60157,2.58203 0.40103,0.51823 1.04426,0.77735 1.92968,0.77735 0.79687,0 1.39062,-0.29037 1.78125,-0.8711 0.39062,-0.58072 0.58593,-1.41536 0.58594,-2.5039 -1e-5,-1.11458 -0.19532,-1.94531 -0.58594,-2.49219 -0.39063,-0.54687 -0.9948,-0.8203 -1.8125,-0.82031 z"
         style="font-size:16px;font-variant:normal;font-stretch:normal;fill:#2d2d2d;font-family:Open Sans;-inkscape-font-specification:Open Sans"
         id="path5791"
         inkscape:connector-curvature="0" />
      <path
         d="m 200.62161,248.16394 c 1.125,1e-5 1.99869,0.38412 2.6211,1.15234 0.62238,0.76824 0.93358,1.85548 0.93359,3.26172 -1e-5,1.40626 -0.31381,2.4987 -0.94141,3.27735 -0.62761,0.77864 -1.4987,1.16797 -2.61328,1.16797 -0.55729,0 -1.06641,-0.10287 -1.52734,-0.3086 -0.46094,-0.20573 -0.84766,-0.52213 -1.16016,-0.94922 l -0.0937,0 -0.27343,1.10157 -0.92969,0 0,-12.15625 1.29687,0 0,2.95312 c 0,0.66147 -0.0208,1.25522 -0.0625,1.78125 l 0.0625,0 c 0.60417,-0.85416 1.5,-1.28124 2.6875,-1.28125 z m -0.1875,1.08594 c -0.88542,1e-5 -1.52344,0.25391 -1.91406,0.76172 -0.39063,0.50782 -0.58594,1.36328 -0.58594,2.5664 0,1.20313 0.20052,2.06381 0.60157,2.58203 0.40103,0.51823 1.04426,0.77735 1.92968,0.77735 0.79687,0 1.39062,-0.29037 1.78125,-0.8711 0.39062,-0.58072 0.58593,-1.41536 0.58594,-2.5039 -1e-5,-1.11458 -0.19532,-1.94531 -0.58594,-2.49219 -0.39063,-0.54687 -0.9948,-0.8203 -1.8125,-0.82031 z"
         style="font-size:16px;font-variant:normal;font-stretch:normal;fill:#2d2d2d;font-family:Open Sans;-inkscape-font-specification:Open Sans"
         id="path5793"
         inkscape:connector-curvature="0" />
      <path
         d="m 210.35599,248.14832 c 0.3802,0 0.72135,0.0312 1.02344,0.0937 l -0.17969,1.20312 c -0.35417,-0.0781 -0.66667,-0.11718 -0.9375,-0.11719 -0.69272,1e-5 -1.28516,0.28126 -1.77735,0.84375 -0.49219,0.56251 -0.73828,1.26303 -0.73828,2.10157 l 0,4.59375 -1.29687,0 0,-8.5625 1.07031,0 0.14844,1.58593 0.0625,0 c 0.3177,-0.55728 0.70052,-0.98697 1.14844,-1.28906 0.44791,-0.30207 0.94009,-0.45312 1.47656,-0.45312 z"
         style="font-size:16px;font-variant:normal;font-stretch:normal;fill:#2d2d2d;font-family:Open Sans;-inkscape-font-specification:Open Sans"
         id="path5795"
         inkscape:connector-curvature="0" />
      <path
         d="m 214.27786,256.86707 -1.29687,0 0,-8.5625 1.29687,0 z m -1.40625,-10.88282 c 0,-0.29686 0.0729,-0.51431 0.21875,-0.65234 0.14583,-0.13801 0.32813,-0.20702 0.54688,-0.20703 0.20833,1e-5 0.38802,0.0703 0.53906,0.21094 0.15104,0.14063 0.22656,0.35678 0.22656,0.64843 0,0.29168 -0.0755,0.50913 -0.22656,0.65235 -0.15104,0.14324 -0.33073,0.21485 -0.53906,0.21484 -0.21875,1e-5 -0.40105,-0.0716 -0.54688,-0.21484 -0.14583,-0.14322 -0.21875,-0.36067 -0.21875,-0.65235 z"
         style="font-size:16px;font-variant:normal;font-stretch:normal;fill:#2d2d2d;font-family:Open Sans;-inkscape-font-specification:Open Sans"
         id="path5797"
         inkscape:connector-curvature="0" />
      <path
         d="m 218.34036,256.86707 -1.29687,0 0,-12.15625 1.29687,0 z"
         style="font-size:16px;font-variant:normal;font-stretch:normal;fill:#2d2d2d;font-family:Open Sans;-inkscape-font-specification:Open Sans"
         id="path5799"
         inkscape:connector-curvature="0" />
      <path
         d="m 222.40286,256.86707 -1.29687,0 0,-12.15625 1.29687,0 z"
         style="font-size:16px;font-variant:normal;font-stretch:normal;fill:#2d2d2d;font-family:Open Sans;-inkscape-font-specification:Open Sans"
         id="path5801"
         inkscape:connector-curvature="0" />
      <path
         d="m 226.46536,256.86707 -1.29687,0 0,-8.5625 1.29687,0 z m -1.40625,-10.88282 c 0,-0.29686 0.0729,-0.51431 0.21875,-0.65234 0.14583,-0.13801 0.32813,-0.20702 0.54688,-0.20703 0.20833,1e-5 0.38802,0.0703 0.53906,0.21094 0.15104,0.14063 0.22656,0.35678 0.22656,0.64843 0,0.29168 -0.0755,0.50913 -0.22656,0.65235 -0.15104,0.14324 -0.33073,0.21485 -0.53906,0.21484 -0.21875,1e-5 -0.40105,-0.0716 -0.54688,-0.21484 -0.14583,-0.14322 -0.21875,-0.36067 -0.21875,-0.65235 z"
         style="font-size:16px;font-variant:normal;font-stretch:normal;fill:#2d2d2d;font-family:Open Sans;-inkscape-font-specification:Open Sans"
         id="path5803"
         inkscape:connector-curvature="0" />
      <path
         d="m 234.49661,256.86707 -0.25781,-1.21875 -0.0625,0 c -0.42709,0.53645 -0.85287,0.89974 -1.27734,1.08984 -0.42449,0.1901 -0.95443,0.28516 -1.58985,0.28516 -0.84896,0 -1.51432,-0.21875 -1.99609,-0.65625 -0.48177,-0.4375 -0.72266,-1.0599 -0.72266,-1.86719 0,-1.72916 1.38281,-2.63541 4.14844,-2.71875 l 1.45313,-0.0469 0,-0.53125 c -1e-5,-0.67187 -0.14454,-1.16796 -0.4336,-1.48828 -0.28907,-0.3203 -0.75131,-0.48046 -1.38672,-0.48047 -0.71354,1e-5 -1.52083,0.21876 -2.42187,0.65625 l -0.39844,-0.99218 c 0.42187,-0.22916 0.88411,-0.40885 1.38672,-0.53907 0.5026,-0.1302 1.00651,-0.1953 1.51172,-0.19531 1.02083,1e-5 1.77733,0.22657 2.26953,0.67969 0.49218,0.45313 0.73827,1.17969 0.73828,2.17969 l 0,5.84375 z m -2.92968,-0.91407 c 0.80728,0 1.4414,-0.22135 1.90234,-0.66406 0.46093,-0.44271 0.6914,-1.0625 0.69141,-1.85937 l 0,-0.77344 -1.29688,0.0547 c -1.03125,0.0365 -1.77474,0.19661 -2.23047,0.48046 -0.45573,0.28386 -0.68359,0.72527 -0.68359,1.32422 0,0.46875 0.14192,0.82553 0.42578,1.07032 0.28385,0.24479 0.68099,0.36718 1.19141,0.36718 z"
         style="font-size:16px;font-variant:normal;font-stretch:normal;fill:#2d2d2d;font-family:Open Sans;-inkscape-font-specification:Open Sans"
         id="path5805"
         inkscape:connector-curvature="0" />
      <path
         d="m 243.99661,256.86707 0,-5.53907 c 0,-0.69791 -0.15886,-1.21874 -0.47656,-1.5625 -0.31771,-0.34374 -0.81511,-0.51561 -1.49219,-0.51562 -0.89584,1e-5 -1.55208,0.24219 -1.96875,0.72656 -0.41667,0.48438 -0.625,1.28386 -0.625,2.39844 l 0,4.49219 -1.29687,0 0,-8.5625 1.05469,0 0.21093,1.17187 0.0625,0 c 0.26562,-0.42187 0.63802,-0.74869 1.11719,-0.98047 0.47916,-0.23176 1.01302,-0.34765 1.60156,-0.34765 1.03125,0 1.80729,0.2487 2.32813,0.74609 0.52082,0.4974 0.78124,1.29297 0.78125,2.38672 l 0,5.58594 z"
         style="font-size:16px;font-variant:normal;font-stretch:normal;fill:#2d2d2d;font-family:Open Sans;-inkscape-font-specification:Open Sans"
         id="path5807"
         inkscape:connector-curvature="0" />
      <path
         d="m 250.71536,255.953 c 0.22916,0 0.45052,-0.0169 0.66407,-0.0508 0.21353,-0.0339 0.3828,-0.069 0.50781,-0.10547 l 0,0.99219 c -0.14063,0.0677 -0.34766,0.1237 -0.6211,0.16797 -0.27344,0.0443 -0.51953,0.0664 -0.73828,0.0664 -1.65625,0 -2.48437,-0.8724 -2.48437,-2.61719 l 0,-5.09375 -1.22656,0 0,-0.625 1.22656,-0.53906 0.54687,-1.82813 0.75,0 0,1.98438 2.48438,0 0,1.00781 -2.48438,0 0,5.03906 c 0,0.51563 0.1224,0.91146 0.36719,1.1875 0.24479,0.27604 0.58073,0.41406 1.00781,0.41406 z"
         style="font-size:16px;font-variant:normal;font-stretch:normal;fill:#2d2d2d;font-family:Open Sans;-inkscape-font-specification:Open Sans"
         id="path5809"
         inkscape:connector-curvature="0" />
    </g>
  </g>
  <g
     inkscape:groupmode="layer"
     id="layer3"
     inkscape:label="Layer"
     transform="translate(-74.3013,-169.53517)" />
</svg>
